<svg id="Componente_4_1" data-name="Componente 4 – 1" xmlns="http://www.w3.org/2000/svg" width="167.479" height="138.958" viewBox="0 0 167.479 138.958">
  <g id="Grupo_8" data-name="Grupo 8" transform="translate(0 21.922)">
    <path id="Trazado_49" data-name="Trazado 49" d="M4821.961,2017.967a16.983,16.983,0,1,0-18.019.161,19.2,19.2,0,0,0-9.821,12.578l-2.783,11.573a2.542,2.542,0,0,0,4.943,1.189l2.783-11.573a14.139,14.139,0,0,1,13.788-10.865,16.52,16.52,0,0,1,16.5,16.5v44.25a2.542,2.542,0,1,0,5.084,0v-44.25A21.61,21.61,0,0,0,4821.961,2017.967Zm-9.143-26.179a11.895,11.895,0,1,1-11.894,11.894A11.908,11.908,0,0,1,4812.819,1991.788Z" transform="translate(-4666.96 -1986.703)" fill="#2599f9"/>
    <path id="Trazado_50" data-name="Trazado 50" d="M4219.811,2243.688a8.212,8.212,0,0,0,0-16.424h-22.437l-.871-9.567a2.542,2.542,0,0,0-5.064.461l1.082,11.879a2.542,2.542,0,0,0,2.532,2.312h24.759a3.127,3.127,0,1,1,0,6.254h-28a6.876,6.876,0,0,1-6.832-6.06l-1.505-22.183a2.542,2.542,0,0,0-5.073.344l1.509,22.243q0,.056.01.112a11.956,11.956,0,0,0,11.891,10.628h5.4l-23.243,27.891a2.542,2.542,0,0,0,1.953,4.17H4213.8a2.542,2.542,0,1,0,0-5.084H4181.35l22.48-26.977Z" transform="translate(-4167.16 -2165.698)" fill="#2599f9"/>
    <path id="Trazado_51" data-name="Trazado 51" d="M4162.424,2021.029a14.139,14.139,0,0,1,13.789,10.865l2.783,11.573a2.542,2.542,0,0,0,4.944-1.189l-2.783-11.573a19.2,19.2,0,0,0-9.82-12.578,16.975,16.975,0,1,0-18.02-.162,21.61,21.61,0,0,0-12.478,19.563v44.25a2.542,2.542,0,1,0,5.084,0v-44.25A16.519,16.519,0,0,1,4162.424,2021.029Zm.035-29.242a11.895,11.895,0,1,1-11.895,11.894A11.908,11.908,0,0,1,4162.459,1991.788Z" transform="translate(-4140.839 -1986.703)" fill="#2599f9"/>
    <path id="Trazado_52" data-name="Trazado 52" d="M4482.079,2275.558a25.6,25.6,0,0,0-15.868-18.8,16.983,16.983,0,1,0-18.54.08A25.468,25.468,0,0,0,4432.1,2275.2l-3.982,18.715a2.542,2.542,0,1,0,4.973,1.059l3.981-18.71a20.435,20.435,0,0,1,40.016.283l3.628,18.389a2.542,2.542,0,0,0,4.988-.984Zm-25.2-44.861a11.894,11.894,0,1,1-11.894,11.894A11.907,11.907,0,0,1,4456.875,2230.7Z" transform="translate(-4373.17 -2179.952)" fill="#2599f9"/>
    <path id="Trazado_53" data-name="Trazado 53" d="M4729.21,2243.685h5.7a11.957,11.957,0,0,0,11.891-10.628c0-.037.008-.075.01-.112l1.509-22.243a2.542,2.542,0,0,0-5.073-.344l-1.5,22.183a6.876,6.876,0,0,1-6.832,6.06h-28a3.127,3.127,0,1,1,0-6.254h24.759a2.542,2.542,0,0,0,2.532-2.312l1.081-11.879a2.542,2.542,0,1,0-5.063-.461l-.871,9.567h-22.437a8.212,8.212,0,1,0,0,16.423h15.677l22.481,26.977h-32.454a2.542,2.542,0,1,0,0,5.084H4750.5a2.542,2.542,0,0,0,1.953-4.17Z" transform="translate(-4592.085 -2165.696)" fill="#2599f9"/>
  </g>
  <path id="Trazado_54" data-name="Trazado 54" d="M4446.523,1872h-41.053a14.89,14.89,0,0,0-14.874,14.874v24.18a14.9,14.9,0,0,0,13.313,14.792v5.813a2.263,2.263,0,0,0,3.609,1.82l10.213-7.552h28.791a14.891,14.891,0,0,0,14.874-14.874v-24.18A14.89,14.89,0,0,0,4446.523,1872Zm10.346,39.053a10.358,10.358,0,0,1-10.346,10.346h-29.536a2.262,2.262,0,0,0-1.346.444l-7.2,5.326v-3.506a2.264,2.264,0,0,0-2.264-2.264h-.7a10.358,10.358,0,0,1-10.346-10.346v-24.18a10.358,10.358,0,0,1,10.346-10.346h41.053a10.358,10.358,0,0,1,10.346,10.346Z" transform="translate(-4342.864 -1872)" fill="#2599f9"/>
</svg>
