<svg id="Componente_3_1" data-name="Componente 3 – 1" xmlns="http://www.w3.org/2000/svg" width="148.655" height="131.729" viewBox="0 0 148.655 131.729">
  <path id="Trazado_45" data-name="Trazado 45" d="M3967.075,2664.858a19.33,19.33,0,1,0-19.33-19.33A19.352,19.352,0,0,0,3967.075,2664.858Zm0-34.16a14.83,14.83,0,1,1-14.83,14.83A14.847,14.847,0,0,1,3967.075,2630.7Z" transform="translate(-3903.625 -2583.428)" fill="#2599f9"/>
  <path id="Trazado_46" data-name="Trazado 46" d="M3748.409,2965.7h-11.624l11.764-39.52a5.727,5.727,0,0,0-5.469-7.427h-45.21a5.718,5.718,0,0,0-5.437,3.927l-1.7,5.135-12.714-6.642a2.25,2.25,0,1,0-2.084,3.989l13.365,6.982-8.247,24.915H3656.6a2.233,2.233,0,0,0-1.31.427A8.368,8.368,0,0,0,3650,2954.1l-13.449-1.635,6.77-7.7a2.25,2.25,0,0,0-3.38-2.971l-8.357,9.506a2.226,2.226,0,0,0-.333.521l-2.971-.361a2.25,2.25,0,0,0-.543,4.468l21.7,2.637c1.707.221,4.077,3.633,4.867,7.132h-37.64v-4.006a24.372,24.372,0,0,1,5.239-15.062l8.37-10.577a24.414,24.414,0,0,1,13.029-8.456l12.142-3.1a2.25,2.25,0,1,0-1.113-4.36l-12.142,3.1a28.934,28.934,0,0,0-15.445,10.024l-8.37,10.577a28.892,28.892,0,0,0-6.21,17.855v4.006H3605.9a2.25,2.25,0,0,0,0,4.5h142.51a2.25,2.25,0,0,0,0-4.5Zm-90.758-4.14h25.028a2.25,2.25,0,0,0,2.136-1.543l11.89-35.922a1.224,1.224,0,0,1,1.165-.841h45.21a1.2,1.2,0,0,1,.988.5,1.218,1.218,0,0,1,.176,1.117l-12.154,40.83h-73.222A19.239,19.239,0,0,0,3657.651,2961.559Z" transform="translate(-3603.65 -2838.47)" fill="#2599f9"/>
  <path id="Trazado_47" data-name="Trazado 47" d="M4370.452,2367.4c-2.2-2.689-5.666-3.369-7.891-1.549l-.023.02-4.559,3.834-23.425,19.046a2.249,2.249,0,0,0-.72,1.048l-2.267,6.951a2.25,2.25,0,0,0,2.139,2.948,2.277,2.277,0,0,0,.261-.015l7.263-.846a2.247,2.247,0,0,0,1.159-.489l23.43-19.05s.008-.009.013-.012l.016-.011,4.574-3.847a4.792,4.792,0,0,0,1.65-4.037A7.016,7.016,0,0,0,4370.452,2367.4Zm-30.394,27.045-3.124.364.973-2.982,21.175-17.217,2.146,2.623Zm27.484-22.475-.008.007-2.838,2.387-2.146-2.623,2.847-2.395a2.547,2.547,0,0,1,2.145,2.624Z" transform="translate(-4238.137 -2355.577)" fill="#2599f9"/>
  <path id="Trazado_48" data-name="Trazado 48" d="M4269.75,2292.63h-40.806a14.8,14.8,0,0,0-14.784,14.784v24.034a14.806,14.806,0,0,0,13.233,14.7v5.778a2.25,2.25,0,0,0,3.587,1.809l10.152-7.506h28.618a14.8,14.8,0,0,0,14.785-14.785v-24.034A14.8,14.8,0,0,0,4269.75,2292.63Zm10.284,38.819a10.3,10.3,0,0,1-10.284,10.284h-29.359a2.251,2.251,0,0,0-1.338.441l-7.161,5.294v-3.485a2.25,2.25,0,0,0-2.25-2.25h-.7a10.3,10.3,0,0,1-10.284-10.284v-24.034a10.3,10.3,0,0,1,10.284-10.284h40.806a10.3,10.3,0,0,1,10.284,10.284Z" transform="translate(-4135.88 -2292.63)" fill="#2599f9"/>
</svg>
