<svg id="Componente_9_1" data-name="Componente 9 – 1" xmlns="http://www.w3.org/2000/svg" width="1607.308" height="1222.239" viewBox="0 0 1607.308 1222.239">
  <g id="Grupo_95" data-name="Grupo 95" transform="matrix(-0.966, 0.259, -0.259, -0.966, 2672.021, 1986.634)">
    <path id="Trazado_43" data-name="Trazado 43" d="M1107.355,1389.711c-124.088,57.763-98.138,142.428-214.573,202.094s-148.04,84.688-156.357,121.258,21.624,63.516,26.614,90.461-28.277,61.59,14.97,169.374,71.526,144.354,153.03,163.6,66.536,100.086,158.02,111.633,301.069-46.193,409.189-102.008,316.039,38.492,454.1,42.343,247.489-169.573,197.941-313.727c-58.218-169.376-48.239-71.215-104.792-248.289s-297.742-76.989-389.228-94.311S1252.069,1322.346,1107.355,1389.711Z" transform="translate(0 4.031)" fill="#2599f9" opacity="0.097"/>
    <path id="Trazado_44" data-name="Trazado 44" d="M894.546,1487.964c-129.452,125.176-93.535,231.2-78.231,263.708s30.613,106.569-10.2,162.561-11.905,131.856,79.93,169.787,37.414,81.281,161.561,86.7,108.842-46.961,215.984-25.287,430.263,110.181,557.811,45.155,243.192-234.81,192.173-357.635-100.339-139.079-52.721-270.934-27.209-213.136-141.152-186.042-299.314,187.848-496.589,169.785S1008.489,1377.783,894.546,1487.964Z" transform="translate(45.61 0)" fill="#2599f9" opacity="0.095"/>
  </g>
</svg>
