<svg xmlns="http://www.w3.org/2000/svg" viewBox="0 0 731.69 629.44"><defs><style>.cls-1{fill:#f2f2f2;}</style></defs><g id="Capa_2" data-name="Capa 2"><g id="Capa_1-2" data-name="Capa 1"><path class="cls-1" d="M173.93,603.23H68.25a41.66,41.66,0,0,1-33.33-14.58c-7.94-9.8-10.6-23.21-7.53-37.76L49.94,445.26a13.11,13.11,0,1,0-25.44-6.32c-.07.28-.13.57-.18.86L1.85,545.46c-4.78,22.43-.23,43.63,12.79,59.69s31.76,24.29,53.69,24.29h105.6a13.11,13.11,0,1,0,0-26.21Z"/><path class="cls-1" d="M643,429.85A13.14,13.14,0,0,0,627.43,440L604.94,545.46c-6.68,31.32-38.65,57.77-69.85,57.77H429.52a13.11,13.11,0,0,0,0,26.21H535.15c44.28,0,86.11-34.51,95.47-78.55l22.46-105.63A13.1,13.1,0,0,0,643,429.85Z"/><path class="cls-1" d="M717.12,24.3C704.45,8.62,685.35,0,663.42,0H557.7a13.11,13.11,0,0,0,0,26.21H663.39A41.68,41.68,0,0,1,696.72,40.8c7.94,9.8,10.59,23.2,7.52,37.76L681.69,184.18a13.12,13.12,0,0,0,10.08,15.56h0a12,12,0,0,0,2.74.29,13.07,13.07,0,0,0,12.78-10.39L729.78,84C734.65,61.55,730.1,40.36,717.12,24.3Z"/><path class="cls-1" d="M88.64,199.74a12.18,12.18,0,0,0,2.75.29,13.13,13.13,0,0,0,12.81-10.39L126.7,84c6.67-31.32,38.64-57.78,69.84-57.78H302.17a13.11,13.11,0,1,0,0-26.21H196.48C152.2,0,110.37,34.51,101,78.56L78.55,184.18a13.12,13.12,0,0,0,10.08,15.56Z"/><path class="cls-1" d="M155.13,238H262.2a195.17,195.17,0,0,1,21.55-21.58H181.31c7.68-36,15.15-71.29,22.76-107.1h107.1q-10.76,50.7-21.75,102.4a191.47,191.47,0,0,1,25.18-16.94c7.61-36,15.2-71.56,22.73-107H187C176.38,138.07,165.81,187.78,155.13,238Z"/><path class="cls-1" d="M486,211.87c7.14-33.71,14.37-67.72,21.78-102.55h107.1c-7.61,35.72-15.08,70.85-22.76,107.07H489.57A106.53,106.53,0,0,1,502,238H609.13c10.74-50.51,21.31-100.17,31.94-150.26H490.84c-7.68,36.13-15.26,71.76-22.79,107.19A105.48,105.48,0,0,1,486,211.87Z"/><path class="cls-1" d="M245.73,417.69c-7.18,33.66-14.41,67.66-21.82,102.56h-107l22.76-107.1H242.12a106.79,106.79,0,0,1-12.48-21.76H122.51c-10.57,50.27-21.26,100-31.95,150.35H241.12c7.62-35.87,15.2-71.44,22.76-107A104.41,104.41,0,0,1,245.73,417.69Z"/><path class="cls-1" d="M271.35,195c4.63-21.82,9.09-42.81,13.52-63.59H221.16c-4.57,21.61-8.85,42.36-13.52,63.59Z"/><path class="cls-1" d="M525,131.37,511.5,194.93h63.59c4.55-21.38,8.86-42.13,13.49-63.56Z"/><path class="cls-1" d="M206.76,498.14c4.63-21.82,9.09-42.81,13.52-63.53H156.69c-4.55,21.37-8.86,42.09-13.52,63.53Z"/><path class="cls-1" d="M379.46,92.75h-12.7L348.1,180.11c4.46-1.42,8.86-2.66,13.5-3.72Z"/><path class="cls-1" d="M271.91,539.08H284.6l18.28-86a120.75,120.75,0,0,1-11.81-3.72Z"/><path class="cls-1" d="M410.1,92.75h-6.5l-17.12,80c2.13-.15,4.25-.21,6.41-.27h2.95c4.66,0,9.24.24,13.73.68l17.06-80.33Z"/><path class="cls-1" d="M335.56,457h-2.95a50.34,50.34,0,0,1-6.29-.26l-17.6,82.3H332l17.56-82.66C344.92,456.81,340.25,457,335.56,457Z"/><path class="cls-1" d="M444.19,181.47,463.06,92.9H440.92l-17.51,82.4A116.47,116.47,0,0,1,444.19,181.47Z"/><path class="cls-1" d="M364.08,454.3l-18,84.72h22.14l19.33-91A162.8,162.8,0,0,1,364.08,454.3Z"/><path class="cls-1" d="M402,442.22,381.32,539h7.2l21.4-100.66C407.35,439.71,404.67,441,402,442.22Z"/><path class="cls-1" d="M457.33,404.38a195.18,195.18,0,0,1-26.8,21.87l-24,112.83h22.14Z"/><path class="cls-1" d="M535.47,260.2H519l-8.53,40a145.38,145.38,0,0,1-2.36,14.52c-1,4.9-2.31,9.77-3.81,14.53L459.75,539.08h36.34l59.28-278.82Z"/><polygon class="cls-1" points="210.27 260.2 189.37 260.2 166.05 369.96 186.95 369.96 210.27 260.2"/><polygon class="cls-1" points="231.67 260.2 221.16 260.2 197.81 369.96 208.32 369.96 231.67 260.2"/><polygon class="cls-1" points="174.99 260.2 169.65 260.2 152.12 260.2 128.76 369.96 146.3 369.96 151.64 369.96 152.38 369.96 175.7 260.2 174.99 260.2"/><polygon class="cls-1" points="585.78 260.2 583.03 260.2 573.08 260.2 513.63 539.88 523.58 539.88 526.32 539.88 543.89 539.88 603.31 260.2 585.78 260.2"/><path class="cls-1" d="M366.85,307.34a8.41,8.41,0,0,0-8,6.23c-11.57,47.23-42.36,85.91-67.31,106.48a6.75,6.75,0,0,0-1.95,9.1,5.09,5.09,0,0,0,4.17,1.88,7.79,7.79,0,0,0,4.93-1.88C311.85,418.31,355.93,378,371.66,314a5.08,5.08,0,0,0-4.81-6.67Z"/><path class="cls-1" d="M342.7,314.16a34.48,34.48,0,0,1,13.7-20.66,29.76,29.76,0,0,1,22.41-4c15.14,3.16,17.38,11.6.82,55.27-11.19,29.52-36,66.83-56.62,85a6.61,6.61,0,0,0-1.53,9.1,5.16,5.16,0,0,0,4,1.68,8,8,0,0,0,5.17-2.07C353.36,418.37,379.69,379,391.88,347c11.81-31.15,24-63.35-7.88-70a44.26,44.26,0,0,0-33.27,6.46,50.69,50.69,0,0,0-20.66,30C320.8,347,299.84,377.51,267.69,404a6.78,6.78,0,0,0-1.92,9.1,6.41,6.41,0,0,0,9.06,0l0,0C309.73,384.3,332.58,351,342.7,314.16Z"/><path class="cls-1" d="M361.42,436.44a5.46,5.46,0,0,0,3.25,1,8.13,8.13,0,0,0,5.9-2.95,354.79,354.79,0,0,0,40.27-62.44c11.6-22.67,25-55.08,23.11-80.91a44.55,44.55,0,0,0-24.74-37.61c-16.26-8.39-37.93-8.48-57.95-.24-32.62,13.4-45.25,44.49-54.52,72.59-8.36,25.3-36.73,50.95-46.11,56.42a7.41,7.41,0,0,0-3.69,8.85,5.9,5.9,0,0,0,8.07,2.12,5.14,5.14,0,0,0,.49-.32c11.66-6.82,43.72-35.42,53.7-65.62,8.5-25.74,18.95-51.72,44.84-62.35,16.35-6.73,34-6.67,47.23.15a35,35,0,0,1,19.51,29.52c3,41.48-40.79,110.94-59.57,132.84a6.05,6.05,0,0,0-.2,8.56Z"/><path class="cls-1" d="M413.76,418.19a8.18,8.18,0,0,0,5.9-2.74c8.15-8.86,18.66-28.7,27.49-51.6,5.75-14.77,15.64-43.9,17.18-70.32C467,246.82,431,214.09,380.58,217.3c-48.39,3.16-92.58,37.88-107.46,84.43-13.64,42.66-23.62,49.54-31.79,55.09a7.14,7.14,0,0,0-3,9,6.09,6.09,0,0,0,8.51,1.29l.35-.28c12.61-8.62,24.21-19.4,38.38-63.77a107.19,107.19,0,0,1,93.05-73c43.72-3,74.86,25.18,72.5,65.24-2.45,42.09-28.1,99-40.5,112.59a6.17,6.17,0,0,0-.46,8.71l.13.15A5.37,5.37,0,0,0,413.76,418.19Z"/><path class="cls-1" d="M483.69,323.4a8.39,8.39,0,0,0,7.8-6.4c4.28-20.14,6.31-61.64-13.2-89.48-13.61-19.43-38.38-33-68.31-37.35a139.74,139.74,0,0,0-91.93,18.75C249,250.69,239.59,314.78,239.23,317.47a5,5,0,0,0,5.14,5.9h.41a8.35,8.35,0,0,0,7.38-6.91c0-.59,8.86-59.39,70.85-97,53.14-32.15,119.74-17.71,143.83,16.71,21.87,31.23,12.1,78.79,11.81,80.8a5,5,0,0,0,3.46,6.24A5,5,0,0,0,483.69,323.4Z"/></g></g></svg>