<svg id="Capa_1" data-name="Capa 1" xmlns="http://www.w3.org/2000/svg" xmlns:xlink="http://www.w3.org/1999/xlink" viewBox="0 0 560 140"><defs><style>.cls-1{fill:url(#Degradado_sin_nombre_40);}.cls-2{fill:url(#Degradado_sin_nombre_40-2);}.cls-3{fill:url(#Degradado_sin_nombre_40-3);}.cls-4{fill:url(#Degradado_sin_nombre_40-4);}.cls-5{fill:url(#Degradado_sin_nombre_40-5);}.cls-6{fill:url(#Degradado_sin_nombre_40-6);}.cls-7{fill:url(#Degradado_sin_nombre_40-7);}.cls-8{fill:url(#Degradado_sin_nombre_40-8);}.cls-9{fill:url(#Degradado_sin_nombre_40-9);}.cls-10{fill:url(#Degradado_sin_nombre_40-10);}.cls-11{fill:url(#Degradado_sin_nombre_40-11);}.cls-12{fill:url(#Degradado_sin_nombre_40-12);}.cls-13{fill:url(#Degradado_sin_nombre_40-13);}.cls-14{fill:url(#Degradado_sin_nombre_40-14);}.cls-15{fill:url(#Degradado_sin_nombre_40-15);}.cls-16{fill:url(#Degradado_sin_nombre_40-16);}.cls-17{fill:url(#Degradado_sin_nombre_40-17);}.cls-18{fill:url(#Degradado_sin_nombre_40-18);}.cls-19{fill:url(#Degradado_sin_nombre_40-19);}.cls-20{fill:url(#Degradado_sin_nombre_40-20);}.cls-21{fill:url(#Degradado_sin_nombre_40-21);}.cls-22{fill:url(#Degradado_sin_nombre_40-22);}.cls-23{fill:url(#Degradado_sin_nombre_40-23);}.cls-24{fill:url(#Degradado_sin_nombre_40-24);}.cls-25{fill:url(#Degradado_sin_nombre_40-25);}.cls-26{fill:url(#Degradado_sin_nombre_40-26);}.cls-27{fill:url(#Degradado_sin_nombre_40-27);}.cls-28{fill:url(#Degradado_sin_nombre_40-28);}.cls-29{fill:url(#Degradado_sin_nombre_40-29);}.cls-30{fill:url(#Degradado_sin_nombre_40-30);}.cls-31{fill:url(#Degradado_sin_nombre_40-31);}.cls-32{fill:url(#Degradado_sin_nombre_40-32);}.cls-33{fill:url(#Degradado_sin_nombre_40-33);}.cls-34{fill:url(#Degradado_sin_nombre_40-34);}.cls-35{fill:url(#Degradado_sin_nombre_40-35);}.cls-36{fill:url(#Degradado_sin_nombre_40-36);}.cls-37{fill:url(#Degradado_sin_nombre_40-37);}.cls-38{fill:url(#Degradado_sin_nombre_40-38);}.cls-39{fill:url(#Degradado_sin_nombre_40-39);}.cls-40{fill:url(#Degradado_sin_nombre_40-40);}.cls-41{fill:url(#Degradado_sin_nombre_40-41);}.cls-42{fill:url(#Degradado_sin_nombre_40-42);}</style><linearGradient id="Degradado_sin_nombre_40" x1="303.2" y1="132.09" x2="303.2" y2="1.08" gradientUnits="userSpaceOnUse"><stop offset="0" stop-color="#0072ff"/><stop offset="0.17" stop-color="#007bff"/><stop offset="0.46" stop-color="#0095ff"/><stop offset="0.83" stop-color="#00beff"/><stop offset="0.99" stop-color="#00d2ff"/></linearGradient><linearGradient id="Degradado_sin_nombre_40-2" x1="519.79" y1="132.09" x2="519.79" y2="1.08" xlink:href="#Degradado_sin_nombre_40"/><linearGradient id="Degradado_sin_nombre_40-3" x1="469.28" y1="132.09" x2="469.28" y2="1.08" xlink:href="#Degradado_sin_nombre_40"/><linearGradient id="Degradado_sin_nombre_40-4" x1="524.7" y1="132.09" x2="524.7" y2="1.08" xlink:href="#Degradado_sin_nombre_40"/><linearGradient id="Degradado_sin_nombre_40-5" x1="143.29" y1="132.09" x2="143.29" y2="1.08" xlink:href="#Degradado_sin_nombre_40"/><linearGradient id="Degradado_sin_nombre_40-6" x1="190.88" y1="132.09" x2="190.88" y2="1.08" xlink:href="#Degradado_sin_nombre_40"/><linearGradient id="Degradado_sin_nombre_40-7" x1="231.74" y1="132.09" x2="231.74" y2="1.08" xlink:href="#Degradado_sin_nombre_40"/><linearGradient id="Degradado_sin_nombre_40-8" x1="269.5" y1="132.09" x2="269.5" y2="1.08" xlink:href="#Degradado_sin_nombre_40"/><linearGradient id="Degradado_sin_nombre_40-9" x1="297.73" y1="132.09" x2="297.73" y2="1.08" xlink:href="#Degradado_sin_nombre_40"/><linearGradient id="Degradado_sin_nombre_40-10" x1="335.36" y1="132.09" x2="335.36" y2="1.08" xlink:href="#Degradado_sin_nombre_40"/><linearGradient id="Degradado_sin_nombre_40-11" x1="385.46" y1="132.09" x2="385.46" y2="1.08" xlink:href="#Degradado_sin_nombre_40"/><linearGradient id="Degradado_sin_nombre_40-12" x1="416.92" y1="132.09" x2="416.92" y2="1.08" xlink:href="#Degradado_sin_nombre_40"/><linearGradient id="Degradado_sin_nombre_40-13" x1="443.65" y1="132.09" x2="443.65" y2="1.08" xlink:href="#Degradado_sin_nombre_40"/><linearGradient id="Degradado_sin_nombre_40-14" x1="496.11" y1="132.09" x2="496.11" y2="1.08" xlink:href="#Degradado_sin_nombre_40"/><linearGradient id="Degradado_sin_nombre_40-15" x1="40.43" y1="132.09" x2="40.43" y2="1.08" xlink:href="#Degradado_sin_nombre_40"/><linearGradient id="Degradado_sin_nombre_40-16" x1="92.75" y1="132.09" x2="92.75" y2="1.08" xlink:href="#Degradado_sin_nombre_40"/><linearGradient id="Degradado_sin_nombre_40-17" x1="104.99" y1="132.09" x2="104.99" y2="1.08" xlink:href="#Degradado_sin_nombre_40"/><linearGradient id="Degradado_sin_nombre_40-18" x1="52.67" y1="132.09" x2="52.67" y2="1.08" xlink:href="#Degradado_sin_nombre_40"/><linearGradient id="Degradado_sin_nombre_40-19" x1="58.54" y1="132.09" x2="58.54" y2="1.08" xlink:href="#Degradado_sin_nombre_40"/><linearGradient id="Degradado_sin_nombre_40-20" x1="95.08" y1="132.09" x2="95.08" y2="1.08" xlink:href="#Degradado_sin_nombre_40"/><linearGradient id="Degradado_sin_nombre_40-21" x1="50.36" y1="132.09" x2="50.36" y2="1.08" xlink:href="#Degradado_sin_nombre_40"/><linearGradient id="Degradado_sin_nombre_40-22" x1="58.54" y1="132.09" x2="58.54" y2="1.08" xlink:href="#Degradado_sin_nombre_40"/><linearGradient id="Degradado_sin_nombre_40-23" x1="94.55" y1="132.09" x2="94.55" y2="1.08" xlink:href="#Degradado_sin_nombre_40"/><linearGradient id="Degradado_sin_nombre_40-24" x1="50.89" y1="132.09" x2="50.89" y2="1.08" xlink:href="#Degradado_sin_nombre_40"/><linearGradient id="Degradado_sin_nombre_40-25" x1="72.48" y1="132.09" x2="72.48" y2="1.08" xlink:href="#Degradado_sin_nombre_40"/><linearGradient id="Degradado_sin_nombre_40-26" x1="63.42" y1="132.09" x2="63.42" y2="1.08" xlink:href="#Degradado_sin_nombre_40"/><linearGradient id="Degradado_sin_nombre_40-27" x1="77.56" y1="132.09" x2="77.56" y2="1.08" xlink:href="#Degradado_sin_nombre_40"/><linearGradient id="Degradado_sin_nombre_40-28" x1="68.37" y1="132.09" x2="68.37" y2="1.08" xlink:href="#Degradado_sin_nombre_40"/><linearGradient id="Degradado_sin_nombre_40-29" x1="81.89" y1="132.09" x2="81.89" y2="1.08" xlink:href="#Degradado_sin_nombre_40"/><linearGradient id="Degradado_sin_nombre_40-30" x1="72.83" y1="132.09" x2="72.83" y2="1.08" xlink:href="#Degradado_sin_nombre_40"/><linearGradient id="Degradado_sin_nombre_40-31" x1="76.25" y1="132.09" x2="76.25" y2="1.08" xlink:href="#Degradado_sin_nombre_40"/><linearGradient id="Degradado_sin_nombre_40-32" x1="80.54" y1="132.09" x2="80.54" y2="1.08" xlink:href="#Degradado_sin_nombre_40"/><linearGradient id="Degradado_sin_nombre_40-33" x1="89.51" y1="132.09" x2="89.51" y2="1.08" xlink:href="#Degradado_sin_nombre_40"/><linearGradient id="Degradado_sin_nombre_40-34" x1="51.66" y1="132.09" x2="51.66" y2="1.08" xlink:href="#Degradado_sin_nombre_40"/><linearGradient id="Degradado_sin_nombre_40-35" x1="54.81" y1="132.09" x2="54.81" y2="1.08" xlink:href="#Degradado_sin_nombre_40"/><linearGradient id="Degradado_sin_nombre_40-36" x1="47.4" y1="132.09" x2="47.4" y2="1.08" xlink:href="#Degradado_sin_nombre_40"/><linearGradient id="Degradado_sin_nombre_40-37" x1="95.55" y1="132.09" x2="95.55" y2="1.08" xlink:href="#Degradado_sin_nombre_40"/><linearGradient id="Degradado_sin_nombre_40-38" x1="68.49" y1="132.09" x2="68.49" y2="1.08" xlink:href="#Degradado_sin_nombre_40"/><linearGradient id="Degradado_sin_nombre_40-39" x1="69" y1="132.09" x2="69" y2="1.08" xlink:href="#Degradado_sin_nombre_40"/><linearGradient id="Degradado_sin_nombre_40-40" x1="69.7" y1="132.09" x2="69.7" y2="1.08" xlink:href="#Degradado_sin_nombre_40"/><linearGradient id="Degradado_sin_nombre_40-41" x1="70.96" y1="132.09" x2="70.96" y2="1.08" xlink:href="#Degradado_sin_nombre_40"/><linearGradient id="Degradado_sin_nombre_40-42" x1="72.82" y1="132.09" x2="72.82" y2="1.08" xlink:href="#Degradado_sin_nombre_40"/></defs><path class="cls-1" d="M303.2,53.18a4.61,4.61,0,1,1,4.61-4.61A4.62,4.62,0,0,1,303.2,53.18Zm0-6.49a1.88,1.88,0,1,0,1.88,1.88A1.88,1.88,0,0,0,303.2,46.69Z"/><path class="cls-2" d="M519.79,96.21a4.61,4.61,0,1,1,4.61-4.61A4.61,4.61,0,0,1,519.79,96.21Zm0-6.49a1.88,1.88,0,1,0,1.88,1.88A1.88,1.88,0,0,0,519.79,89.72Z"/><path class="cls-3" d="M469.28,96.21a4.61,4.61,0,1,1,4.61-4.61A4.62,4.62,0,0,1,469.28,96.21Zm0-6.49a1.88,1.88,0,1,0,1.87,1.88A1.88,1.88,0,0,0,469.28,89.72Z"/><path class="cls-4" d="M519,84.56a1.34,1.34,0,0,1-.18-1.11l7.58-35.68a1.61,1.61,0,0,1,.59-1.11,1.9,1.9,0,0,1,1.22-.42h1.18a1.18,1.18,0,0,1,1.26,1.53L523,83.45a1.79,1.79,0,0,1-.66,1.11,1.86,1.86,0,0,1-1.21.42H520A1.16,1.16,0,0,1,519,84.56Z"/><path class="cls-5" d="M117.8,93.81a1.23,1.23,0,0,1-.21-1.12l9.83-45.82a2,2,0,0,1,.67-1.16,1.91,1.91,0,0,1,1.29-.45h1.82a1.3,1.3,0,0,1,1,.32,1.36,1.36,0,0,1,.38.6l9.24,31,22.61-30.89a2,2,0,0,1,1.61-.91h1.75a1.32,1.32,0,0,1,1,.43A1.42,1.42,0,0,1,169,47l-9.83,45.83a1.88,1.88,0,0,1-.67,1.11,1.91,1.91,0,0,1-1.23.42h-1.33a1.27,1.27,0,0,1-1-.42,1.24,1.24,0,0,1-.21-1.12L162.61,56l-18.4,25.16a3,3,0,0,1-2.45,1.4h-1.47a1.89,1.89,0,0,1-1.26-.35,2.08,2.08,0,0,1-.63-1l-8.06-27L122.07,92.7a2,2,0,0,1-.63,1.12,1.79,1.79,0,0,1-1.2.42h-1.33A1.39,1.39,0,0,1,117.8,93.81Z"/><path class="cls-6" d="M176.35,92.19a10.49,10.49,0,0,1-2.88-7.84,25.16,25.16,0,0,1,.57-5l4.24-19.87a1.88,1.88,0,0,1,.67-1.12,1.91,1.91,0,0,1,1.23-.42h1.19a1.22,1.22,0,0,1,1,.43,1.33,1.33,0,0,1,.17,1.12L178.38,79a27.67,27.67,0,0,0-.71,5.39,6.23,6.23,0,0,0,1.81,5Q181.3,91,185.42,91a14.05,14.05,0,0,0,9.25-3.2,14.94,14.94,0,0,0,5.13-8.73L204,59.57a1.88,1.88,0,0,1,.67-1.12,1.91,1.91,0,0,1,1.23-.42h1.18a1.19,1.19,0,0,1,1,.42,1.34,1.34,0,0,1,.17,1.12L201.1,92.88a1.94,1.94,0,0,1-.64,1.12,1.75,1.75,0,0,1-1.19.42h-1.19a1.27,1.27,0,0,1-1-.42,1.23,1.23,0,0,1-.21-1.12l.71-3.29a36.67,36.67,0,0,1-3.44,3.07,11.53,11.53,0,0,1-3.58,1.78,16.89,16.89,0,0,1-5.11.65C181.31,95.08,178.29,94.11,176.35,92.19Z"/><path class="cls-7" d="M214.16,106.63a2.15,2.15,0,0,1,.42-1.19L223.22,92l-6.79-32.15a1.12,1.12,0,0,1-.07-.49,1.28,1.28,0,0,1,.39-.94,1.51,1.51,0,0,1,1.15-.38h1.27a1.28,1.28,0,0,1,1.46,1l5.89,27.81,18-27.75a2,2,0,0,1,1.82-1.05h1.68a1.36,1.36,0,0,1,.88.32,1,1,0,0,1,.38.81,1.94,1.94,0,0,1-.35.91l-30.27,46.55a2,2,0,0,1-1.83,1h-1.61A1,1,0,0,1,214.16,106.63Z"/><path class="cls-8" d="M256.71,93.74a12,12,0,0,1-5.31-4.11,9.81,9.81,0,0,1-1.77-5.74,7.9,7.9,0,0,1,.07-1.26,1.67,1.67,0,0,1,.46-1,1.37,1.37,0,0,1,1-.38h1.68c.84,0,1.26.47,1.26,1.41a6.91,6.91,0,0,0,1,4,8.09,8.09,0,0,0,3.7,3.16,15.35,15.35,0,0,0,6.58,1.24q6.64,0,10.65-2.42a10.17,10.17,0,0,0,4.91-6.71,7.23,7.23,0,0,0,.22-1.61,4.84,4.84,0,0,0-1.43-3.54,13,13,0,0,0-4-2.56c-1.73-.75-4.31-1.74-7.76-3q-6.17-2.12-8.88-4.61a8.32,8.32,0,0,1-2.72-6.48,14.48,14.48,0,0,1,6.29-12q4.74-3.28,12.29-3.27a18.3,18.3,0,0,1,8,1.6,11.78,11.78,0,0,1,4.85,4,9.22,9.22,0,0,1,1.6,5.12,12.33,12.33,0,0,1-.14,1.54c-.19.93-.68,1.39-1.48,1.39h-1.68a1.51,1.51,0,0,1-.91-.32,1.12,1.12,0,0,1-.34-1.08,6.22,6.22,0,0,0-2.47-5.78,11.53,11.53,0,0,0-7.45-2.3,18.75,18.75,0,0,0-9.28,2.12,9.17,9.17,0,0,0-4.74,6.25,8.84,8.84,0,0,0-.22,1.82A5.11,5.11,0,0,0,262,62.81a11.8,11.8,0,0,0,3.74,2.6,75.71,75.71,0,0,0,7.13,2.78q6.72,2.32,9.72,4.82a8.09,8.09,0,0,1,3,6.55,15.1,15.1,0,0,1-.36,2.94,14.31,14.31,0,0,1-6.5,9.54q-5.15,3.24-13.34,3.22A21.87,21.87,0,0,1,256.71,93.74Z"/><path class="cls-9" d="M292.23,94.2a1.26,1.26,0,0,1-.2-1.12l7.14-33.3a1.88,1.88,0,0,1,.67-1.12,1.9,1.9,0,0,1,1.22-.42h1.19a1.22,1.22,0,0,1,1,.43,1.37,1.37,0,0,1,.17,1.12l-7.14,33.3a1.94,1.94,0,0,1-.64,1.12,1.75,1.75,0,0,1-1.19.42h-1.19A1.31,1.31,0,0,1,292.23,94.2Z"/><path class="cls-10" d="M307.91,94.24a1.27,1.27,0,0,1-.2-1.12l7.14-33.31a1.86,1.86,0,0,1,.67-1.12,2,2,0,0,1,1.22-.41h1.19a1.19,1.19,0,0,1,1,.42,1.37,1.37,0,0,1,.17,1.12l-.5,2.45a17.1,17.1,0,0,1,4.7-3.56,14.4,14.4,0,0,1,12.39.62,8.18,8.18,0,0,1,3.7,4.88q5-6.57,12.61-6.55a11.25,11.25,0,0,1,8,2.88q3.08,2.88,3.06,8.13a18.93,18.93,0,0,1-.5,4.2l-4.38,20.36a1.94,1.94,0,0,1-.64,1.12,1.75,1.75,0,0,1-1.19.42h-1.19a1.31,1.31,0,0,1-1.05-.42,1.26,1.26,0,0,1-.2-1.12l4.24-19.66a21.89,21.89,0,0,0,.57-4.83q0-7-6.84-7a12.23,12.23,0,0,0-7.57,2.78q-3.65,2.79-5,9l-4.24,19.66a2,2,0,0,1-.64,1.12,1.74,1.74,0,0,1-1.19.41h-1.19a1.31,1.31,0,0,1-1.05-.42,1.27,1.27,0,0,1-.2-1.12l4.24-19.66a24.12,24.12,0,0,0,.57-4.62c0-2.57-.61-4.41-1.84-5.54a7.22,7.22,0,0,0-5-1.69,12.3,12.3,0,0,0-7.57,2.79q-3.65,2.79-5,9L312,93.13a2,2,0,0,1-.64,1.12,1.79,1.79,0,0,1-1.19.41H309A1.31,1.31,0,0,1,307.91,94.24Z"/><path class="cls-11" d="M366.61,107.67a1.27,1.27,0,0,1-.2-1.12l10-46.6a1.88,1.88,0,0,1,.63-1.12,1.78,1.78,0,0,1,1.19-.42h1.19a1.28,1.28,0,0,1,1.05.42,1.3,1.3,0,0,1,.21,1.12L380,63.25a18.87,18.87,0,0,1,5.3-4.12,15.45,15.45,0,0,1,7-1.38q6.45,0,9.34,3.69a14.74,14.74,0,0,1,2.88,9.42,23.22,23.22,0,0,1-.28,3.85c-.15.94-.43,2.24-.85,3.92a28.35,28.35,0,0,1-6.29,12.1q-4.39,4.81-12.09,4.8-7.91,0-10.77-5.55l-3.6,16.58a2,2,0,0,1-.64,1.12,1.74,1.74,0,0,1-1.19.41h-1.19A1.31,1.31,0,0,1,366.61,107.67Zm27.28-19.82a22.33,22.33,0,0,0,5.2-9.23,31.72,31.72,0,0,0,.85-3.92,29.33,29.33,0,0,0,.36-4q0-8.88-8-8.9a13.21,13.21,0,0,0-6.87,1.8,15.85,15.85,0,0,0-5.05,4.64,18.33,18.33,0,0,0-2.74,5.84q-.49,2-1.2,5.46a19.67,19.67,0,0,0-.29,2.8,9.76,9.76,0,0,0,2.15,6.51c1.45,1.74,3.68,2.6,6.72,2.61A11.73,11.73,0,0,0,393.89,87.85Z"/><path class="cls-12" d="M410,94.47a1.29,1.29,0,0,1-.2-1.13l10-46.59a1.88,1.88,0,0,1,.63-1.12,1.78,1.78,0,0,1,1.19-.42h1.19a1.19,1.19,0,0,1,1.26,1.55L414,93.35a1.94,1.94,0,0,1-.64,1.12,1.75,1.75,0,0,1-1.19.42H411A1.31,1.31,0,0,1,410,94.47Z"/><path class="cls-13" d="M430.56,92.2q-3.15-3.44-3.13-9.32a26.41,26.41,0,0,1,.22-3.36c.23-1.39.63-3.26,1.2-5.59a24.18,24.18,0,0,1,7.09-11.68,17.06,17.06,0,0,1,11.7-4.38q6,0,9.1,3.27t3.13,9.15a28.5,28.5,0,0,1-.65,5.66L459,77a1.78,1.78,0,0,1-.7,1.12,2.08,2.08,0,0,1-1.26.42l-24.92-.06-.14.7a16,16,0,0,0-.22,2.66,10.67,10.67,0,0,0,2.22,7,7.71,7.71,0,0,0,6.37,2.78A13.41,13.41,0,0,0,447,90.07a16.4,16.4,0,0,0,4.1-3,8.18,8.18,0,0,1,1.19-1,2.45,2.45,0,0,1,1.19-.21h1.12a1.46,1.46,0,0,1,.91.29.93.93,0,0,1,.35.77c0,.88-.76,2-2.28,3.46a20.66,20.66,0,0,1-6,3.73,20,20,0,0,1-8,1.59Q433.71,95.64,430.56,92.2Zm24.68-17.58.07-.28a20,20,0,0,0,.35-3.36,9.19,9.19,0,0,0-2.29-6.55,8.53,8.53,0,0,0-6.58-2.5,12.52,12.52,0,0,0-8.86,3.48,16.35,16.35,0,0,0-4.88,8.88l-.07.28Z"/><path class="cls-14" d="M483.2,92.49q-3.43-3.26-3.41-9a19.22,19.22,0,0,1,.35-3.85c.57-2.8,1-4.66,1.21-5.6q1.9-7.7,6.57-11.88A17.1,17.1,0,0,1,499.86,58q6.51,0,9.55,3.06a9.87,9.87,0,0,1,3,7.25,8.58,8.58,0,0,1-.07,1.19,1.88,1.88,0,0,1-.46,1.12,1.33,1.33,0,0,1-1,.42h-1.33a1.66,1.66,0,0,1-1.12-.32,1.37,1.37,0,0,1-.27-1.16c.1-2.56-.58-4.45-2-5.67s-3.54-1.83-6.3-1.83a13.77,13.77,0,0,0-8.93,3.06q-3.82,3.06-5.37,9.29c-.24.94-.59,2.57-1.07,4.9a21,21,0,0,0-.35,3.92q0,8.48,8.45,8.49t12.26-7.11a3.9,3.9,0,0,1,.85-1.19,1.63,1.63,0,0,1,1.05-.28H508a1.1,1.1,0,0,1,.94.43,1.21,1.21,0,0,1,.1,1.12A15.55,15.55,0,0,1,506.16,90a15.34,15.34,0,0,1-5.5,4.15,18.67,18.67,0,0,1-8.09,1.63Q486.62,95.76,483.2,92.49Z"/><path class="cls-15" d="M50,103.4H37.44a4.94,4.94,0,0,1-3.95-1.73,5.25,5.25,0,0,1-.89-4.47l2.66-12.52a1.55,1.55,0,1,0-3-.65L29.56,96.55a8.31,8.31,0,0,0,1.52,7.08,8,8,0,0,0,6.36,2.88H50a1.56,1.56,0,0,0,0-3.11Z"/><path class="cls-16" d="M105.56,82.83a1.56,1.56,0,0,0-1.84,1.2l-2.66,12.52a9,9,0,0,1-8.28,6.85H80.26a1.56,1.56,0,0,0,0,3.11H92.78A12,12,0,0,0,104.1,97.2l2.66-12.52A1.56,1.56,0,0,0,105.56,82.83Z"/><path class="cls-17" d="M114.34,34.79A8,8,0,0,0,108,31.91H95.46a1.55,1.55,0,1,0,0,3.1H108a5,5,0,0,1,4,1.73,5.23,5.23,0,0,1,.89,4.48l-2.66,12.52a1.55,1.55,0,0,0,1.19,1.84,1.84,1.84,0,0,0,.33,0,1.56,1.56,0,0,0,1.52-1.23l2.66-12.52A8.25,8.25,0,0,0,114.34,34.79Z"/><path class="cls-18" d="M39.86,55.58a1.84,1.84,0,0,0,.33,0,1.55,1.55,0,0,0,1.51-1.23l2.67-12.52A9,9,0,0,1,52.64,35H65.16a1.55,1.55,0,1,0,0-3.1H52.64a12,12,0,0,0-11.31,9.31L38.66,53.74A1.56,1.56,0,0,0,39.86,55.58Z"/><path class="cls-19" d="M47.74,60.12H60.43A23.61,23.61,0,0,1,63,57.57H50.85c.9-4.27,1.79-8.45,2.69-12.7h12.7c-.86,4-1.71,8-2.58,12.14a22.88,22.88,0,0,1,3-2q1.35-6.39,2.7-12.68H51.52C50.26,48.27,49,54.15,47.74,60.12Z"/><path class="cls-20" d="M87,57c.85-4,1.7-8,2.58-12.16h12.69l-2.7,12.69H87.38a13.2,13.2,0,0,1,1.47,2.56h12.7l3.78-17.81H87.53L84.83,55A12.74,12.74,0,0,1,87,57Z"/><path class="cls-21" d="M58.48,81.41,55.89,93.56H43.21c.9-4.23,1.78-8.4,2.7-12.69H58.05a12.62,12.62,0,0,1-1.48-2.58H43.88c-1.27,6-2.52,11.86-3.79,17.82H57.93q1.35-6.37,2.69-12.68A12.81,12.81,0,0,1,58.48,81.41Z"/><path class="cls-22" d="M61.51,55c.55-2.59,1.08-5.08,1.61-7.54H55.57C55,50,54.51,52.5,54,55Z"/><path class="cls-23" d="M91.58,47.48C91,50.06,90.5,52.55,90,55h7.53l1.6-7.53Z"/><path class="cls-24" d="M53.86,91l1.6-7.53H47.92c-.53,2.53-1.06,5-1.6,7.53Z"/><path class="cls-25" d="M74.33,42.9H72.82l-2.2,10.35c.53-.17,1.06-.31,1.6-.44Z"/><path class="cls-26" d="M61.58,95.79h1.51L65.25,85.6a13.56,13.56,0,0,1-1.41-.44Z"/><path class="cls-27" d="M77.94,42.9h-.75l-2,9.48.76,0h.37c.55,0,1.09,0,1.62.08l2-9.52Z"/><path class="cls-28" d="M69.13,86.08h-.36L68,86,66,95.79H68.7L70.79,86C70.23,86.05,69.68,86.08,69.13,86.08Z"/><path class="cls-29" d="M82,53.41,84.24,42.9H81.61l-2.07,9.76A15,15,0,0,1,82,53.41Z"/><path class="cls-30" d="M72.5,85.75l-2.13,10H73L75.29,85A19.14,19.14,0,0,1,72.5,85.75Z"/><path class="cls-31" d="M77,84.32,74.56,95.79h.85L78,83.86Z"/><path class="cls-32" d="M83.55,79.83a22.41,22.41,0,0,1-3.17,2.59L77.54,95.79h2.62Z"/><path class="cls-33" d="M92.82,62.74H90.87l-1,4.74c-.06.57-.16,1.15-.28,1.73a17.4,17.4,0,0,1-.45,1.72L83.84,95.79h4.31l7-33.05Z"/><polygon class="cls-34" points="54.28 62.74 51.8 62.74 49.04 75.75 51.51 75.75 54.28 62.74"/><polygon class="cls-35" points="56.81 62.74 55.57 62.74 52.8 75.75 54.05 75.75 56.81 62.74"/><polygon class="cls-36" points="50.09 62.74 49.46 62.74 47.38 62.74 44.62 75.75 46.7 75.75 47.33 75.75 47.42 75.75 50.18 62.74 50.09 62.74"/><polygon class="cls-37" points="98.78 62.74 98.45 62.74 97.28 62.74 90.23 95.89 91.41 95.89 91.73 95.89 93.81 95.89 100.86 62.74 98.78 62.74"/><path class="cls-38" d="M72.83,68.33a1,1,0,0,0-.94.74,25,25,0,0,1-8,12.62.81.81,0,0,0-.23,1.08.61.61,0,0,0,.49.22.92.92,0,0,0,.59-.22A26.77,26.77,0,0,0,73.4,69.12.6.6,0,0,0,72.83,68.33Z"/><path class="cls-39" d="M70,69.14a4.12,4.12,0,0,1,1.62-2.44,3.51,3.51,0,0,1,2.66-.47c1.8.37,2.06,1.37.1,6.55a29.71,29.71,0,0,1-6.71,10.08.79.79,0,0,0-.19,1.07.61.61,0,0,0,.48.2.94.94,0,0,0,.61-.24A31.39,31.39,0,0,0,75.8,73c1.4-3.69,2.85-7.51-.93-8.3a5.3,5.3,0,0,0-4,.76,6.07,6.07,0,0,0-2.45,3.56,21.38,21.38,0,0,1-7.39,10.74.8.8,0,0,0-.23,1.07.76.76,0,0,0,1.08,0A23.26,23.26,0,0,0,70,69.14Z"/><path class="cls-40" d="M72.19,83.63a.67.67,0,0,0,.39.12.94.94,0,0,0,.71-.35A41.6,41.6,0,0,0,78.07,76c1.37-2.69,3-6.53,2.73-9.59A5.27,5.27,0,0,0,77.87,62a8.33,8.33,0,0,0-6.87,0c-3.86,1.58-5.36,5.27-6.46,8.6-1,3-4.35,6-5.46,6.69a.87.87,0,0,0-.44,1,.69.69,0,0,0,1,.22c1.39-.81,5.18-4.2,6.37-7.78,1-3,2.24-6.13,5.31-7.39a6.77,6.77,0,0,1,5.6,0,4.14,4.14,0,0,1,2.32,3.49c.36,4.91-4.84,13.14-7.06,15.75A.71.71,0,0,0,72.19,83.63Z"/><path class="cls-41" d="M78.39,81.47a1,1,0,0,0,.7-.33A22.06,22.06,0,0,0,82.34,75a29.76,29.76,0,0,0,2-8.34c.33-5.53-3.95-9.41-9.93-9a14.69,14.69,0,0,0-12.73,10c-1.62,5.06-2.81,5.87-3.77,6.53a.84.84,0,0,0-.35,1.07.72.72,0,0,0,1,.12c1.49-1,2.87-2.3,4.55-7.56a12.69,12.69,0,0,1,11-8.64c5.18-.35,8.87,3,8.59,7.73-.29,5-3.33,11.73-4.8,13.34a.74.74,0,0,0,0,1.06A.68.68,0,0,0,78.39,81.47Z"/><path class="cls-42" d="M86.68,70.24a1,1,0,0,0,.93-.76c.5-2.39.74-7.31-1.57-10.61A11.79,11.79,0,0,0,78,54.45a16.52,16.52,0,0,0-10.9,2.22c-8.18,4.95-9.3,12.54-9.34,12.86a.59.59,0,0,0,.61.71h.06a1,1,0,0,0,.87-.82,17.6,17.6,0,0,1,8.4-11.5c6.3-3.81,14.19-2.1,17,2,2.59,3.7,1.43,9.34,1.38,9.58A.6.6,0,0,0,86.68,70.24Z"/></svg>