<svg id="Componente_5_1" data-name="Componente 5 – 1" xmlns="http://www.w3.org/2000/svg" width="153.895" height="149.854" viewBox="0 0 153.895 149.854">
  <g id="Grupo_130" data-name="Grupo 130" transform="translate(0 20.678)">
    <path id="Trazado_208" data-name="Trazado 208" d="M374.256,447.335H233.939a6.8,6.8,0,0,1-6.789-6.789V352.01a6.8,6.8,0,0,1,6.789-6.789h33.515a2.782,2.782,0,1,1,0,5.563H233.939a1.228,1.228,0,0,0-1.226,1.226v88.536a1.228,1.228,0,0,0,1.226,1.226H374.256a1.228,1.228,0,0,0,1.226-1.226V352.01a1.228,1.228,0,0,0-1.226-1.226H340.744a2.782,2.782,0,0,1,0-5.563h33.512a6.8,6.8,0,0,1,6.789,6.789v88.536A6.8,6.8,0,0,1,374.256,447.335Z" transform="translate(-227.15 -345.221)" fill="#2599f9"/>
    <path id="Trazado_209" data-name="Trazado 209" d="M359.255,430.935H234.977a4.791,4.791,0,0,1-4.786-4.786V352.94a4.791,4.791,0,0,1,4.786-4.786h21.314a2.782,2.782,0,0,1,0,5.563H235.754v71.654H358.477V353.717H337.945a2.782,2.782,0,1,1,0-5.563h21.311a4.789,4.789,0,0,1,4.786,4.786v73.21A4.789,4.789,0,0,1,359.255,430.935Z" transform="translate(-220.168 -338.487)" fill="#2599f9"/>
    <path id="Trazado_212" data-name="Trazado 212" d="M289.385,392.836H254.057a12.815,12.815,0,0,1-12.8-12.8,2.782,2.782,0,1,1,5.563,0,7.246,7.246,0,0,0,7.241,7.238h35.328a7.248,7.248,0,0,0,7.241-7.238,2.782,2.782,0,1,1,5.563,0A12.817,12.817,0,0,1,289.385,392.836Z" transform="translate(-194.772 -271.681)" fill="#2599f9"/>
    <path id="Trazado_213" data-name="Trazado 213" d="M366.237,400.858H241.958a14.827,14.827,0,0,1-14.808-14.811v-6.012a2.782,2.782,0,0,1,2.782-2.782h46.481a2.782,2.782,0,0,1,2.782,2.782,7.246,7.246,0,0,0,7.241,7.238h35.328A7.248,7.248,0,0,0,329,380.035a2.782,2.782,0,0,1,2.782-2.782h46.478a2.782,2.782,0,0,1,2.782,2.782v6.012A14.825,14.825,0,0,1,366.237,400.858ZM232.713,382.816v3.23a9.256,9.256,0,0,0,9.245,9.245H366.237a9.254,9.254,0,0,0,9.245-9.245v-3.23H334.264a12.83,12.83,0,0,1-12.5,10.019H286.435a12.825,12.825,0,0,1-12.5-10.019Z" transform="translate(-227.15 -271.681)" fill="#2599f9"/>
  </g>
  <path id="Trazado_214" data-name="Trazado 214" d="M270.268,407.467a3.448,3.448,0,0,1-2.429-1l-25.49-25.332a3.447,3.447,0,0,1,2.429-5.89h10.293V342.395a3.445,3.445,0,0,1,3.444-3.448h23.506a3.446,3.446,0,0,1,3.447,3.448v32.849h10.286a3.445,3.445,0,0,1,2.429,5.89L272.7,406.465A3.437,3.437,0,0,1,270.268,407.467Zm-17.132-25.332,17.132,17.026L287.4,382.135h-5.379a3.448,3.448,0,0,1-3.447-3.447V345.842H261.962v32.846a3.446,3.446,0,0,1-3.447,3.447Z" transform="translate(346.946 407.467) rotate(180)" fill="#2599f9"/>
</svg>
